<mxfile host="app.diagrams.net" modified="2022-09-25T13:44:40.905Z" agent="5.0 (Windows NT 10.0; Win64; x64) AppleWebKit/537.36 (KHTML, like Gecko) Chrome/104.0.5112.102 Safari/537.36 OPR/90.0.4480.117" etag="2Yc7qp5JPRigjmRt5u0x" version="20.3.6" type="github">
  <diagram id="ySwgqTaHbjDfsgsV0W49" name="Página-1">
    <mxGraphModel dx="872" dy="515" grid="1" gridSize="10" guides="1" tooltips="1" connect="1" arrows="1" fold="1" page="1" pageScale="1" pageWidth="827" pageHeight="1169" math="0" shadow="0">
      <root>
        <mxCell id="0" />
        <mxCell id="1" parent="0" />
        <mxCell id="0LWsRs8Bbd5ChcIZkb-z-37" value="" style="html=1;fontSize=12;fillColor=default;" vertex="1" parent="1">
          <mxGeometry x="180" y="60" width="630" height="920" as="geometry" />
        </mxCell>
        <mxCell id="0LWsRs8Bbd5ChcIZkb-z-1" value="Actor" style="shape=umlActor;verticalLabelPosition=bottom;verticalAlign=top;html=1;outlineConnect=0;fillColor=default;fontStyle=0" vertex="1" parent="1">
          <mxGeometry x="40" y="210" width="40" height="70" as="geometry" />
        </mxCell>
        <mxCell id="0LWsRs8Bbd5ChcIZkb-z-4" value="" style="ellipse;whiteSpace=wrap;html=1;verticalAlign=top;fontStyle=0;" vertex="1" parent="1">
          <mxGeometry x="195" y="201.5" width="120" height="60" as="geometry" />
        </mxCell>
        <mxCell id="0LWsRs8Bbd5ChcIZkb-z-6" value="Registrar Pedido" style="text;html=1;strokeColor=none;fillColor=none;align=center;verticalAlign=middle;whiteSpace=wrap;rounded=0;fontStyle=1;fontSize=14;" vertex="1" parent="1">
          <mxGeometry x="190" y="208" width="130" height="47" as="geometry" />
        </mxCell>
        <mxCell id="0LWsRs8Bbd5ChcIZkb-z-7" value="" style="endArrow=none;html=1;rounded=0;fontSize=14;" edge="1" parent="1" source="0LWsRs8Bbd5ChcIZkb-z-1" target="0LWsRs8Bbd5ChcIZkb-z-6">
          <mxGeometry width="50" height="50" relative="1" as="geometry">
            <mxPoint x="220" y="280" as="sourcePoint" />
            <mxPoint x="350" y="220" as="targetPoint" />
          </mxGeometry>
        </mxCell>
        <mxCell id="0LWsRs8Bbd5ChcIZkb-z-9" value="" style="ellipse;whiteSpace=wrap;html=1;verticalAlign=top;fontStyle=0;" vertex="1" parent="1">
          <mxGeometry x="465" y="118" width="120" height="60" as="geometry" />
        </mxCell>
        <mxCell id="0LWsRs8Bbd5ChcIZkb-z-10" value="Validar Cliente" style="text;html=1;strokeColor=none;fillColor=none;align=center;verticalAlign=middle;whiteSpace=wrap;rounded=0;fontStyle=1;fontSize=14;" vertex="1" parent="1">
          <mxGeometry x="460" y="124.5" width="130" height="47" as="geometry" />
        </mxCell>
        <mxCell id="0LWsRs8Bbd5ChcIZkb-z-11" value="&amp;lt;&amp;lt;include&amp;gt;&amp;gt;" style="text;html=1;strokeColor=none;fillColor=none;align=center;verticalAlign=middle;whiteSpace=wrap;rounded=0;fontSize=14;rotation=-20;" vertex="1" parent="1">
          <mxGeometry x="320" y="178" width="60" height="30" as="geometry" />
        </mxCell>
        <mxCell id="0LWsRs8Bbd5ChcIZkb-z-12" value="Cliente" style="text;html=1;align=center;verticalAlign=middle;resizable=0;points=[];autosize=1;strokeColor=none;fillColor=none;fontSize=14;" vertex="1" parent="1">
          <mxGeometry x="25" y="291.5" width="70" height="30" as="geometry" />
        </mxCell>
        <mxCell id="0LWsRs8Bbd5ChcIZkb-z-14" value="" style="endArrow=block;dashed=1;endFill=0;endSize=12;html=1;rounded=0;fontSize=14;exitX=1;exitY=0.25;exitDx=0;exitDy=0;entryX=0.032;entryY=0.744;entryDx=0;entryDy=0;entryPerimeter=0;" edge="1" parent="1" source="0LWsRs8Bbd5ChcIZkb-z-6" target="0LWsRs8Bbd5ChcIZkb-z-9">
          <mxGeometry width="160" relative="1" as="geometry">
            <mxPoint x="430" y="230" as="sourcePoint" />
            <mxPoint x="520" y="150" as="targetPoint" />
          </mxGeometry>
        </mxCell>
        <mxCell id="0LWsRs8Bbd5ChcIZkb-z-15" value="" style="ellipse;whiteSpace=wrap;html=1;verticalAlign=top;fontStyle=0;" vertex="1" parent="1">
          <mxGeometry x="505" y="248.5" width="120" height="60" as="geometry" />
        </mxCell>
        <mxCell id="0LWsRs8Bbd5ChcIZkb-z-16" value="Registrar Itens" style="text;html=1;strokeColor=none;fillColor=none;align=center;verticalAlign=middle;whiteSpace=wrap;rounded=0;fontStyle=1;fontSize=14;" vertex="1" parent="1">
          <mxGeometry x="500" y="255" width="130" height="47" as="geometry" />
        </mxCell>
        <mxCell id="0LWsRs8Bbd5ChcIZkb-z-18" value="" style="ellipse;whiteSpace=wrap;html=1;verticalAlign=top;fontStyle=0;" vertex="1" parent="1">
          <mxGeometry x="195" y="315" width="120" height="60" as="geometry" />
        </mxCell>
        <mxCell id="0LWsRs8Bbd5ChcIZkb-z-17" value="&lt;font style=&quot;font-size: 12px;&quot;&gt;Informar Endereço de Entrega&lt;/font&gt;" style="text;html=1;strokeColor=none;fillColor=none;align=center;verticalAlign=middle;whiteSpace=wrap;rounded=0;fontStyle=1;fontSize=14;" vertex="1" parent="1">
          <mxGeometry x="195" y="321.5" width="115" height="47" as="geometry" />
        </mxCell>
        <mxCell id="0LWsRs8Bbd5ChcIZkb-z-19" value="" style="endArrow=block;dashed=1;endFill=0;endSize=12;html=1;rounded=0;fontSize=14;exitX=0.5;exitY=1;exitDx=0;exitDy=0;entryX=0.5;entryY=0;entryDx=0;entryDy=0;" edge="1" parent="1" source="0LWsRs8Bbd5ChcIZkb-z-4" target="0LWsRs8Bbd5ChcIZkb-z-18">
          <mxGeometry width="160" relative="1" as="geometry">
            <mxPoint x="390.0021052631579" y="296.5" as="sourcePoint" />
            <mxPoint x="468.31789473684205" y="248.5" as="targetPoint" />
          </mxGeometry>
        </mxCell>
        <mxCell id="0LWsRs8Bbd5ChcIZkb-z-20" value="&lt;font style=&quot;font-size: 12px;&quot;&gt;&amp;lt;&amp;lt;include&amp;gt;&amp;gt;&lt;/font&gt;" style="text;html=1;strokeColor=none;fillColor=none;align=center;verticalAlign=middle;whiteSpace=wrap;rounded=0;fontSize=14;rotation=0;" vertex="1" parent="1">
          <mxGeometry x="190" y="265" width="60" height="27" as="geometry" />
        </mxCell>
        <mxCell id="0LWsRs8Bbd5ChcIZkb-z-21" value="" style="ellipse;whiteSpace=wrap;html=1;verticalAlign=top;fontStyle=0;" vertex="1" parent="1">
          <mxGeometry x="440" y="340" width="120" height="60" as="geometry" />
        </mxCell>
        <mxCell id="0LWsRs8Bbd5ChcIZkb-z-22" value="Emitir Comprovante" style="text;html=1;strokeColor=none;fillColor=none;align=center;verticalAlign=middle;whiteSpace=wrap;rounded=0;fontStyle=1;fontSize=14;" vertex="1" parent="1">
          <mxGeometry x="435" y="346.5" width="130" height="47" as="geometry" />
        </mxCell>
        <mxCell id="0LWsRs8Bbd5ChcIZkb-z-23" value="" style="endArrow=block;dashed=1;endFill=0;endSize=12;html=1;rounded=0;fontSize=14;entryX=0.5;entryY=0;entryDx=0;entryDy=0;exitX=0.75;exitY=1;exitDx=0;exitDy=0;exitPerimeter=0;" edge="1" parent="1" source="0LWsRs8Bbd5ChcIZkb-z-9" target="0LWsRs8Bbd5ChcIZkb-z-15">
          <mxGeometry width="160" relative="1" as="geometry">
            <mxPoint x="560.0021052631579" y="228" as="sourcePoint" />
            <mxPoint x="638.317894736842" y="180" as="targetPoint" />
          </mxGeometry>
        </mxCell>
        <mxCell id="0LWsRs8Bbd5ChcIZkb-z-24" value="&amp;lt;&amp;lt;include&amp;gt;&amp;gt;" style="text;html=1;strokeColor=none;fillColor=none;align=center;verticalAlign=middle;whiteSpace=wrap;rounded=0;fontSize=14;rotation=0;" vertex="1" parent="1">
          <mxGeometry x="570" y="190" width="60" height="30" as="geometry" />
        </mxCell>
        <mxCell id="0LWsRs8Bbd5ChcIZkb-z-25" value="" style="endArrow=none;html=1;rounded=0;fontSize=14;entryX=0;entryY=0.25;entryDx=0;entryDy=0;" edge="1" parent="1" source="0LWsRs8Bbd5ChcIZkb-z-1" target="0LWsRs8Bbd5ChcIZkb-z-17">
          <mxGeometry width="50" height="50" relative="1" as="geometry">
            <mxPoint x="200" y="308.5" as="sourcePoint" />
            <mxPoint x="320" y="308.5" as="targetPoint" />
          </mxGeometry>
        </mxCell>
        <mxCell id="0LWsRs8Bbd5ChcIZkb-z-27" value="" style="endArrow=open;endFill=1;endSize=12;html=1;rounded=0;fontSize=12;exitX=1;exitY=1;exitDx=0;exitDy=0;entryX=0.222;entryY=0.028;entryDx=0;entryDy=0;entryPerimeter=0;" edge="1" parent="1" source="0LWsRs8Bbd5ChcIZkb-z-4" target="0LWsRs8Bbd5ChcIZkb-z-21">
          <mxGeometry width="160" relative="1" as="geometry">
            <mxPoint x="420" y="330" as="sourcePoint" />
            <mxPoint x="580" y="330" as="targetPoint" />
          </mxGeometry>
        </mxCell>
        <mxCell id="0LWsRs8Bbd5ChcIZkb-z-28" value="" style="ellipse;whiteSpace=wrap;html=1;verticalAlign=top;fontStyle=0;" vertex="1" parent="1">
          <mxGeometry x="675" y="373.5" width="120" height="60" as="geometry" />
        </mxCell>
        <mxCell id="0LWsRs8Bbd5ChcIZkb-z-29" value="" style="ellipse;whiteSpace=wrap;html=1;verticalAlign=top;fontStyle=0;" vertex="1" parent="1">
          <mxGeometry x="440" y="450" width="120" height="60" as="geometry" />
        </mxCell>
        <mxCell id="0LWsRs8Bbd5ChcIZkb-z-30" value="Informar Endereço de Email" style="text;html=1;strokeColor=none;fillColor=none;align=center;verticalAlign=middle;whiteSpace=wrap;rounded=0;fontStyle=1;fontSize=14;" vertex="1" parent="1">
          <mxGeometry x="680" y="381.5" width="110" height="47" as="geometry" />
        </mxCell>
        <mxCell id="0LWsRs8Bbd5ChcIZkb-z-31" value="" style="endArrow=block;dashed=1;endFill=0;endSize=12;html=1;rounded=0;fontSize=14;exitX=1;exitY=0.5;exitDx=0;exitDy=0;" edge="1" parent="1" source="0LWsRs8Bbd5ChcIZkb-z-22">
          <mxGeometry width="160" relative="1" as="geometry">
            <mxPoint x="670" y="340" as="sourcePoint" />
            <mxPoint x="670" y="400" as="targetPoint" />
          </mxGeometry>
        </mxCell>
        <mxCell id="0LWsRs8Bbd5ChcIZkb-z-32" value="&lt;font style=&quot;font-size: 12px;&quot;&gt;&amp;lt;&amp;lt;include&amp;gt;&amp;gt;&lt;/font&gt;" style="text;html=1;strokeColor=none;fillColor=none;align=center;verticalAlign=middle;whiteSpace=wrap;rounded=0;fontSize=14;rotation=15;" vertex="1" parent="1">
          <mxGeometry x="590" y="356.5" width="60" height="27" as="geometry" />
        </mxCell>
        <mxCell id="0LWsRs8Bbd5ChcIZkb-z-33" value="" style="endArrow=open;endFill=1;endSize=12;html=1;rounded=0;fontSize=12;exitX=0.5;exitY=1;exitDx=0;exitDy=0;" edge="1" parent="1" source="0LWsRs8Bbd5ChcIZkb-z-21">
          <mxGeometry width="160" relative="1" as="geometry">
            <mxPoint x="447.42640687119297" y="395.50320343559645" as="sourcePoint" />
            <mxPoint x="500" y="450" as="targetPoint" />
          </mxGeometry>
        </mxCell>
        <mxCell id="0LWsRs8Bbd5ChcIZkb-z-34" value="&lt;font style=&quot;font-size: 12px;&quot;&gt;Enviar Comprovante por Email&lt;/font&gt;" style="text;html=1;strokeColor=none;fillColor=none;align=center;verticalAlign=middle;whiteSpace=wrap;rounded=0;fontStyle=1;fontSize=14;" vertex="1" parent="1">
          <mxGeometry x="447.5" y="456.5" width="105" height="47" as="geometry" />
        </mxCell>
        <mxCell id="0LWsRs8Bbd5ChcIZkb-z-39" value="&lt;font style=&quot;font-size: 15px;&quot;&gt;&lt;b&gt;Sistema Web Floricultura&lt;/b&gt;&lt;/font&gt;" style="text;html=1;strokeColor=none;fillColor=none;align=center;verticalAlign=middle;whiteSpace=wrap;rounded=0;fontSize=12;" vertex="1" parent="1">
          <mxGeometry x="403.75" y="60" width="192.5" height="30" as="geometry" />
        </mxCell>
        <mxCell id="0LWsRs8Bbd5ChcIZkb-z-40" value="Actor" style="shape=umlActor;verticalLabelPosition=bottom;verticalAlign=top;html=1;outlineConnect=0;fillColor=default;fontStyle=0" vertex="1" parent="1">
          <mxGeometry x="40" y="600" width="40" height="70" as="geometry" />
        </mxCell>
        <mxCell id="0LWsRs8Bbd5ChcIZkb-z-41" value="Funcionário" style="text;html=1;align=center;verticalAlign=middle;resizable=0;points=[];autosize=1;strokeColor=none;fillColor=none;fontSize=14;" vertex="1" parent="1">
          <mxGeometry x="10" y="690" width="100" height="30" as="geometry" />
        </mxCell>
        <mxCell id="0LWsRs8Bbd5ChcIZkb-z-42" value="" style="ellipse;whiteSpace=wrap;html=1;verticalAlign=top;fontStyle=0;" vertex="1" parent="1">
          <mxGeometry x="195" y="605" width="120" height="60" as="geometry" />
        </mxCell>
        <mxCell id="0LWsRs8Bbd5ChcIZkb-z-44" value="Registrar Venda" style="text;html=1;strokeColor=none;fillColor=none;align=center;verticalAlign=middle;whiteSpace=wrap;rounded=0;fontStyle=1;fontSize=14;" vertex="1" parent="1">
          <mxGeometry x="190" y="611.5" width="130" height="47" as="geometry" />
        </mxCell>
        <mxCell id="0LWsRs8Bbd5ChcIZkb-z-45" value="" style="endArrow=none;html=1;rounded=0;fontSize=15;exitX=0.5;exitY=0.5;exitDx=0;exitDy=0;exitPerimeter=0;entryX=0;entryY=0.5;entryDx=0;entryDy=0;" edge="1" parent="1" source="0LWsRs8Bbd5ChcIZkb-z-40" target="0LWsRs8Bbd5ChcIZkb-z-42">
          <mxGeometry width="50" height="50" relative="1" as="geometry">
            <mxPoint x="400" y="600" as="sourcePoint" />
            <mxPoint x="450" y="550" as="targetPoint" />
          </mxGeometry>
        </mxCell>
        <mxCell id="0LWsRs8Bbd5ChcIZkb-z-46" value="" style="ellipse;whiteSpace=wrap;html=1;fontSize=15;fillColor=default;" vertex="1" parent="1">
          <mxGeometry x="230" y="478" width="120" height="60" as="geometry" />
        </mxCell>
        <mxCell id="0LWsRs8Bbd5ChcIZkb-z-48" value="Selecionar Pedido" style="text;html=1;strokeColor=none;fillColor=none;align=center;verticalAlign=middle;whiteSpace=wrap;rounded=0;fontStyle=1;fontSize=14;" vertex="1" parent="1">
          <mxGeometry x="232.5" y="484.5" width="115" height="47" as="geometry" />
        </mxCell>
        <mxCell id="0LWsRs8Bbd5ChcIZkb-z-50" value="" style="endArrow=block;dashed=1;endFill=0;endSize=12;html=1;rounded=0;fontSize=14;exitX=0.5;exitY=0;exitDx=0;exitDy=0;entryX=0.369;entryY=1.006;entryDx=0;entryDy=0;entryPerimeter=0;" edge="1" parent="1" source="0LWsRs8Bbd5ChcIZkb-z-42" target="0LWsRs8Bbd5ChcIZkb-z-46">
          <mxGeometry width="160" relative="1" as="geometry">
            <mxPoint x="215" y="570" as="sourcePoint" />
            <mxPoint x="320" y="600" as="targetPoint" />
          </mxGeometry>
        </mxCell>
        <mxCell id="0LWsRs8Bbd5ChcIZkb-z-51" value="&lt;font style=&quot;font-size: 12px;&quot;&gt;&amp;lt;&amp;lt;include&amp;gt;&amp;gt;&lt;/font&gt;" style="text;html=1;strokeColor=none;fillColor=none;align=center;verticalAlign=middle;whiteSpace=wrap;rounded=0;fontSize=14;rotation=0;" vertex="1" parent="1">
          <mxGeometry x="270" y="570" width="60" height="27" as="geometry" />
        </mxCell>
      </root>
    </mxGraphModel>
  </diagram>
</mxfile>
